<svg width="16" height="18" viewBox="0 0 16 18" fill="none" xmlns="http://www.w3.org/2000/svg">
<path d="M15.3951 8.91202C15.209 8.76467 14.9887 8.66438 14.7558 8.61727C14.7712 8.58941 14.7855 8.56107 14.7991 8.5323L14.9449 8.38647C15.5066 7.82476 15.5655 6.94063 15.082 6.32976C14.8538 6.04142 14.5369 5.84981 14.185 5.77829C14.2101 5.73202 14.2324 5.68472 14.2526 5.6367C14.6351 5.08262 14.6289 4.33797 14.2053 3.80273C13.977 3.51421 13.66 3.32199 13.3079 3.25059C13.5986 2.71608 13.5615 2.04991 13.1731 1.55943C12.8795 1.18849 12.4398 0.975679 11.9666 0.975679C11.5877 0.975679 11.2302 1.11109 10.9496 1.35903C10.9072 1.11806 10.8065 0.885322 10.6461 0.682624C10.3525 0.311688 9.91272 0.0989375 9.4395 0.098877C9.02829 0.098877 8.64227 0.258455 8.35261 0.548118L4.66808 4.23265L4.65403 3.74089C4.64755 2.90334 3.96411 2.2239 3.12504 2.2239C2.30117 2.2239 1.62743 2.87887 1.59715 3.69541L0.861575 9.04331L0.256995 9.74606C-0.105342 10.1674 -0.0810568 10.8047 0.312408 11.1972L1.21095 12.0943C0.933945 12.511 0.982455 13.0793 1.34455 13.4405L5.56365 17.653C5.76526 17.8541 6.03288 17.9647 6.31739 17.9647C6.55098 17.9647 6.78178 17.8863 6.96715 17.744L7.84795 17.0676C8.69526 16.8675 9.62941 16.4128 10.6261 15.7153C11.4964 15.1062 12.4407 14.2946 13.4323 13.3028L15.5296 11.2055C15.8389 10.8962 16.0017 10.4674 15.9763 10.029C15.9508 9.59133 15.739 9.18424 15.3951 8.91202ZM11.3935 1.93872C11.5511 1.78114 11.7588 1.70235 11.9665 1.70235C12.2036 1.70235 12.4408 1.805 12.6033 2.01036C12.8611 2.336 12.8159 2.80856 12.5222 3.10216L12.1481 3.47618C12.0905 3.51464 12.0344 3.55576 11.9818 3.60233C11.9393 3.3613 11.8386 3.12856 11.6782 2.92592C11.4809 2.67678 11.2177 2.49939 10.9227 2.40952L11.3935 1.93872ZM8.86647 1.06198C9.02405 0.904399 9.23177 0.825609 9.4395 0.825609C9.67665 0.825669 9.91375 0.92832 10.0763 1.13368C10.334 1.45932 10.2889 1.93182 9.9952 2.22542L5.70028 6.47595L5.68617 5.98426C5.68247 5.51037 5.46209 5.08723 5.11956 4.80907L8.86647 1.06198ZM0.825602 10.6826C0.699514 10.5568 0.691823 10.355 0.807979 10.22L1.55173 9.35532C1.55209 9.3549 1.55239 9.35429 1.55245 9.35375L2.32279 3.75289C2.32279 3.31164 2.68379 2.95063 3.12504 2.95063C3.56629 2.95063 3.92735 3.31164 3.92735 3.75289L3.94825 4.48174C3.22224 4.58142 2.65697 5.1923 2.62923 5.93865L1.89372 11.2866L1.67975 11.5354L0.825602 10.6826ZM15.0157 10.6916L12.9185 12.7889C11.1273 14.5801 9.25491 16.0179 7.61013 16.3763C7.56017 16.3873 7.51317 16.4083 7.4726 16.4395L6.52451 17.1676C6.4631 17.2147 6.39013 17.2379 6.31745 17.2379C6.23007 17.2379 6.14304 17.2043 6.07715 17.1386L1.8578 12.9259C1.73165 12.8002 1.72396 12.5984 1.84018 12.4633L2.58387 11.5987C2.58429 11.5982 2.58454 11.5977 2.58466 11.5971L3.35493 5.99625C3.35493 5.555 3.716 5.19393 4.15724 5.19393C4.59849 5.19393 4.9595 5.555 4.9595 5.99625L4.99741 7.31793C5.00371 7.53752 5.18436 7.68051 5.37234 7.68051C5.46403 7.68051 5.55754 7.64641 5.6333 7.57071L9.89867 3.30534C10.0563 3.1477 10.2639 3.06897 10.4717 3.06897C10.7088 3.06897 10.946 3.17162 11.1085 3.37698C11.3662 3.70262 11.321 4.17518 11.0273 4.46878L8.08905 7.40708C7.93649 7.55969 7.93649 7.80696 8.08905 7.95945C8.16626 8.03667 8.26746 8.07531 8.36866 8.07531C8.46985 8.07531 8.57111 8.03667 8.64827 7.95945L12.4257 4.18208C12.5833 4.02444 12.7909 3.94571 12.9987 3.94571C13.2358 3.94577 13.473 4.04842 13.6355 4.25379C13.8933 4.57936 13.848 5.05192 13.5544 5.34552L9.79469 9.10521C9.64007 9.25988 9.64007 9.51048 9.79469 9.66515C9.87087 9.74134 9.97068 9.77943 10.0706 9.77943C10.1704 9.77943 10.2703 9.74134 10.3465 9.66515L13.3025 6.70917C13.4601 6.55153 13.6678 6.4728 13.8755 6.4728C14.1126 6.4728 14.3498 6.57545 14.5123 6.78087C14.7701 7.10645 14.7248 7.57901 14.4312 7.87261L11.5031 10.8007C11.3449 10.9589 11.3449 11.2154 11.5031 11.3735L11.5078 11.3783C11.5809 11.4514 11.6767 11.4879 11.7725 11.4879C11.8683 11.4879 11.9641 11.4514 12.0371 11.3783L13.8524 9.56305C14.016 9.39947 14.235 9.31299 14.4532 9.31299C14.6268 9.31299 14.8 9.36774 14.9442 9.48189C15.3294 9.78676 15.3532 10.3542 15.0157 10.6916Z" fill="#4F4F4F"/>
</svg>
