<svg width="24" height="24" viewBox="0 0 24 24" fill="none" xmlns="http://www.w3.org/2000/svg">
<path d="M21.1855 4.98843C21.3494 4.87258 21.3882 4.64578 21.2723 4.48196C21.1563 4.31814 20.9297 4.27926 20.7658 4.39524L19.8583 5.0373C19.6945 5.15316 19.6557 5.37996 19.7716 5.54377C19.8424 5.64382 19.9546 5.6973 20.0685 5.6973C20.141 5.6973 20.2143 5.67562 20.2781 5.63044L21.1855 4.98843Z" fill="#4F4F4F"/>
<path d="M18.781 4.77966C18.8231 4.79553 18.8664 4.80304 18.9088 4.80304C19.0559 4.80304 19.1942 4.71316 19.249 4.56739L19.6402 3.52683C19.7108 3.33903 19.6158 3.12949 19.4279 3.05888C19.2401 2.9882 19.0305 3.08334 18.9599 3.27114L18.5687 4.3117C18.4982 4.4995 18.5932 4.70904 18.781 4.77966Z" fill="#4F4F4F"/>
<path d="M21.6372 6.36798C21.6347 6.36798 21.6322 6.36798 21.6297 6.36798L20.5183 6.37731C20.3177 6.38136 20.1584 6.53507 20.1624 6.73571C20.1664 6.9338 20.3283 7.09471 20.5256 7.09471C20.5281 7.09471 20.5306 7.09471 20.5331 7.09471L21.6445 7.07576C21.8451 7.07164 22.0045 6.9103 22.0004 6.70967C21.9964 6.51157 21.8345 6.36798 21.6372 6.36798Z" fill="#4F4F4F"/>
<path d="M19.3951 11.9118C19.209 11.7645 18.9887 11.6642 18.7558 11.6171C18.7712 11.5892 18.7855 11.5609 18.7991 11.5321L18.9449 11.3863C19.5066 10.8246 19.5655 9.94045 19.082 9.32957C18.8538 9.04124 18.5369 8.84963 18.185 8.7781C18.2101 8.73184 18.2324 8.68454 18.2526 8.63651C18.6351 8.08244 18.6289 7.33778 18.2053 6.80254C17.977 6.51403 17.66 6.32181 17.3079 6.25041C17.5986 5.7159 17.5615 5.04973 17.1731 4.55924C16.8795 4.18831 16.4398 3.9755 15.9666 3.9755C15.5877 3.9755 15.2302 4.11091 14.9496 4.35885C14.9072 4.11787 14.8065 3.88514 14.6461 3.68244C14.3525 3.31151 13.9127 3.09875 13.4395 3.09869C13.0283 3.09869 12.6423 3.25827 12.3526 3.54794L8.66808 7.23247L8.65403 6.74071C8.64755 5.90315 7.96411 5.22372 7.12504 5.22372C6.30117 5.22372 5.62743 5.87869 5.59715 6.69523L4.86158 12.0431L4.25699 12.7459C3.89466 13.1672 3.91894 13.8045 4.31241 14.197L5.21095 15.0941C4.93395 15.5108 4.98245 16.0792 5.34455 16.4403L9.56365 20.6528C9.76526 20.8539 10.0329 20.9646 10.3174 20.9646C10.551 20.9646 10.7818 20.8861 10.9672 20.7438L11.848 20.0675C12.6953 19.8673 13.6294 19.4126 14.6261 18.7151C15.4964 18.106 16.4407 17.2944 17.4323 16.3026L19.5296 14.2053C19.8389 13.8961 20.0017 13.4672 19.9763 13.0288C19.9508 12.5911 19.739 12.1841 19.3951 11.9118ZM15.3935 4.93854C15.5511 4.78096 15.7588 4.70217 15.9665 4.70217C16.2036 4.70217 16.4408 4.80482 16.6033 5.01018C16.8611 5.33582 16.8159 5.80837 16.5222 6.10197L16.1481 6.476C16.0905 6.51446 16.0344 6.55558 15.9818 6.60215C15.9393 6.36111 15.8386 6.12838 15.6782 5.92574C15.4809 5.67659 15.2177 5.49921 14.9227 5.40934L15.3935 4.93854ZM12.8665 4.0618C13.024 3.90422 13.2318 3.82543 13.4395 3.82543C13.6767 3.82549 13.9137 3.92814 14.0763 4.1335C14.334 4.45914 14.2889 4.93163 13.9952 5.22523L9.70028 9.47577L9.68617 8.98407C9.68247 8.51018 9.46209 8.08704 9.11956 7.80889L12.8665 4.0618ZM4.8256 13.6825C4.69951 13.5566 4.69182 13.3548 4.80798 13.2198L5.55173 12.3551C5.55209 12.3547 5.55239 12.3541 5.55245 12.3536L6.32279 6.7527C6.32279 6.31145 6.68379 5.95045 7.12504 5.95045C7.56629 5.95045 7.92735 6.31145 7.92735 6.7527L7.94825 7.48155C7.22224 7.58124 6.65697 8.19212 6.62923 8.93847L5.89372 14.2864L5.67975 14.5352L4.8256 13.6825ZM19.0157 13.6914L16.9185 15.7887C15.1273 17.5799 13.2549 19.0177 11.6101 19.3762C11.5602 19.3871 11.5132 19.4081 11.4726 19.4393L10.5245 20.1674C10.4631 20.2146 10.3901 20.2378 10.3175 20.2378C10.2301 20.2378 10.143 20.2041 10.0771 20.1384L5.8578 15.9258C5.73165 15.8 5.72396 15.5982 5.84018 15.4631L6.58387 14.5985C6.58429 14.598 6.58454 14.5975 6.58466 14.5969L7.35493 8.99606C7.35493 8.55482 7.716 8.19375 8.15724 8.19375C8.59849 8.19375 8.9595 8.55482 8.9595 8.99606L8.99741 10.3177C9.00371 10.5373 9.18436 10.6803 9.37234 10.6803C9.46403 10.6803 9.55754 10.6462 9.6333 10.5705L13.8987 6.30516C14.0563 6.14752 14.2639 6.06879 14.4717 6.06879C14.7088 6.06879 14.946 6.17144 15.1085 6.3768C15.3662 6.70244 15.321 7.17499 15.0273 7.46859L12.089 10.4069C11.9365 10.5595 11.9365 10.8068 12.089 10.9593C12.1663 11.0365 12.2675 11.0751 12.3687 11.0751C12.4699 11.0751 12.5711 11.0365 12.6483 10.9593L16.4257 7.1819C16.5833 7.02426 16.7909 6.94553 16.9987 6.94553C17.2358 6.94559 17.473 7.04824 17.6355 7.2536C17.8933 7.57918 17.848 8.05174 17.5544 8.34534L13.7947 12.105C13.6401 12.2597 13.6401 12.5103 13.7947 12.665C13.8709 12.7412 13.9707 12.7792 14.0706 12.7792C14.1704 12.7792 14.2703 12.7412 14.3465 12.665L17.3025 9.70899C17.4601 9.55135 17.6678 9.47262 17.8755 9.47262C18.1126 9.47262 18.3498 9.57527 18.5123 9.78069C18.7701 10.1063 18.7248 10.5788 18.4312 10.8724L15.5031 13.8005C15.3449 13.9587 15.3449 14.2152 15.5031 14.3733L15.5078 14.3781C15.5809 14.4512 15.6767 14.4877 15.7725 14.4877C15.8683 14.4877 15.9641 14.4512 16.0371 14.3781L17.8524 12.5629C18.016 12.3993 18.235 12.3128 18.4532 12.3128C18.6268 12.3128 18.8 12.3676 18.9442 12.4817C19.3294 12.7866 19.3532 13.354 19.0157 13.6914Z" fill="#4F4F4F"/>
</svg>
