<svg width="24" height="24" viewBox="0 0 24 24" fill="none" xmlns="http://www.w3.org/2000/svg">
<path d="M6.17706 12.3822L10.0456 15.8417C10.2817 16.0528 10.6645 16.0528 10.9005 15.8417C11.1366 15.6306 11.1366 15.2884 10.9005 15.0772L8.06381 12.5405H17.3955C17.7293 12.5405 18 12.2985 18 12C18 11.7015 17.7293 11.4595 17.3955 11.4595H8.06381L10.9004 8.92277C11.1365 8.71166 11.1365 8.36943 10.9004 8.15831C10.7824 8.05284 10.6277 8 10.473 8C10.3183 8 10.1636 8.05284 10.0455 8.15831L6.17706 11.6178C5.94098 11.8289 5.94098 12.1711 6.17706 12.3822Z" fill="#282828"/>
</svg>
