<svg width="18" height="18" viewBox="0 0 18 18" fill="none" xmlns="http://www.w3.org/2000/svg">
<circle cx="9" cy="9" r="9" fill="#E2DBEB"/>
<mask id="mask0" style="mask-type:alpha" maskUnits="userSpaceOnUse" x="0" y="0" width="18" height="18">
<circle cx="9" cy="9" r="9" fill="#6D3DF6"/>
</mask>
<g mask="url(#mask0)">
<path d="M9 12C10.099 12 11.0507 11.6058 11.8283 10.8281C12.6058 10.0505 13 9.09905 13 7.99987C13 6.90107 12.6058 5.94951 11.8281 5.17166C11.0504 4.39418 10.0989 4 9 4C7.90086 4 6.94945 4.39418 6.17187 5.17178C5.3943 5.94938 5 6.90095 5 7.99987C5 9.09905 5.3943 10.0506 6.172 10.8282C6.9497 11.6057 7.90124 12 9 12Z" fill="#6D3DF6"/>
<path d="M15.9661 16.9775C15.9434 16.6383 15.8976 16.2682 15.8301 15.8775C15.762 15.4838 15.6743 15.1116 15.5693 14.7715C15.4609 14.4199 15.3134 14.0727 15.1311 13.74C14.9419 13.3946 14.7196 13.0939 14.4702 12.8465C14.2094 12.5876 13.8902 12.3795 13.5209 12.2277C13.153 12.0766 12.7452 12.0001 12.3091 12.0001C12.1378 12.0001 11.9721 12.0731 11.6522 12.2892C11.4553 12.4224 11.2249 12.5764 10.9679 12.7469C10.748 12.8922 10.4503 13.0283 10.0824 13.1516C9.72359 13.272 9.35924 13.3331 8.99962 13.3331C8.63999 13.3331 8.27576 13.272 7.91653 13.1516C7.5491 13.0284 7.25131 12.8923 7.03175 12.747C6.77711 12.5782 6.54666 12.4241 6.34682 12.289C6.02727 12.0729 5.86148 12 5.69018 12C5.25387 12 4.84624 12.0766 4.47843 12.2278C4.10946 12.3793 3.79004 12.5875 3.529 12.8466C3.27973 13.0942 3.05736 13.3948 2.86839 13.74C2.68621 14.0727 2.53873 14.4197 2.43016 14.7716C2.32531 15.1117 2.23761 15.4838 2.1695 15.8775C2.10204 16.2677 2.0562 16.6379 2.03354 16.9779C2.01127 17.311 2 17.6567 2 18.0059C2 18.9147 2.27845 19.6504 2.82755 20.193C3.36986 20.7284 4.08744 21 4.96006 21H13.0399C13.9126 21 14.6299 20.7285 15.1723 20.193C15.7215 19.6508 16 18.915 16 18.0058C15.9999 17.655 15.9885 17.309 15.9661 16.9775Z" fill="#6D3DF6"/>
</g>
</svg>
