<svg width="24" height="24" viewBox="0 0 24 24" fill="none" xmlns="http://www.w3.org/2000/svg">
<path d="M0 9.00001L11.556 16.3545C11.688 16.452 11.844 16.5 12 16.5C12.156 16.5 12.312 16.452 12.444 16.3545L24 9.00001L12.45 2.33335C12.183 2.13385 11.817 2.13385 11.55 2.33335L0 9.00001Z" fill="#9672FF"/>
<path d="M19.8333 2H4.83334C4.00684 2 3.33334 2.59867 3.33334 3.33333V18C3.33334 18.368 3.66934 18.6667 4.08334 18.6667H20.5833C20.9973 18.6667 21.3333 18.368 21.3333 18V3.33333C21.3333 2.59867 20.6613 2 19.8333 2Z" fill="#ECEFF1"/>
<path d="M6.75 6.66665H17.25C17.664 6.66665 18 6.36798 18 5.99998C18 5.63198 17.664 5.33331 17.25 5.33331H6.75C6.336 5.33331 6 5.63198 6 5.99998C6 6.36798 6.336 6.66665 6.75 6.66665Z" fill="#90A4AE"/>
<path d="M13.2 8H6.8C6.3584 8 6 8.29867 6 8.66667C6 9.03467 6.3584 9.33333 6.8 9.33333H13.2C13.6416 9.33333 14 9.03467 14 8.66667C14 8.29867 13.6416 8 13.2 8Z" fill="#90A4AE"/>
<path d="M12.444 16.3545C12.312 16.452 12.156 16.5 12 16.5C11.844 16.5 11.688 16.452 11.556 16.3545L0 9V22.5C0 23.328 0.672 24 1.5 24H22.5C23.328 24 24 23.328 24 22.5V9L12.444 16.3545Z" fill="#A185F3"/>
<path d="M22.5 24H1.5C0.6585 24 0 23.1895 0 22.1538C0 21.8603 0.114 21.5834 0.306 21.4098L11.556 12.1791C11.688 12.0591 11.844 12 12 12C12.156 12 12.312 12.0591 12.444 12.1791L23.694 21.4098C23.886 21.5834 24 21.8603 24 22.1538C24 23.1895 23.3415 24 22.5 24Z" fill="#C2ADFF"/>
</svg>
