<svg width="156" height="34" viewBox="0 0 156 34" fill="none" xmlns="http://www.w3.org/2000/svg">
<path fill-rule="evenodd" clip-rule="evenodd" d="M107.385 8.25135C107.609 7.67751 108.162 7.2998 108.778 7.2998H110.219C110.835 7.2998 111.388 7.67751 111.612 8.25135L118.094 24.8441C118.395 25.6136 118.015 26.4811 117.245 26.7817C116.476 27.0823 115.608 26.7022 115.307 25.9327L109.499 11.0629L103.69 25.9327C103.389 26.7022 102.521 27.0823 101.752 26.7817C100.982 26.4811 100.602 25.6136 100.903 24.8441L107.385 8.25135Z" fill="#262637"/>
<path fill-rule="evenodd" clip-rule="evenodd" d="M48.4737 9.99169C45.1879 9.99169 41.9917 13.1332 41.9917 17C41.9917 20.8736 45.1389 24.0083 48.4737 24.0083C49.57 24.0083 50.3877 23.8454 51.1256 23.4915C51.8762 23.1316 52.6527 22.522 53.5831 21.4641C54.1287 20.8437 55.0739 20.7832 55.6943 21.3288C56.3146 21.8743 56.3752 22.8195 55.8296 23.4399C54.7379 24.6811 53.6524 25.5976 52.4193 26.189C51.1736 26.7864 49.8861 27 48.4737 27C43.332 27 39 22.3668 39 17C39 11.6264 43.3938 7 48.4737 7C51.3952 7 53.9589 8.0318 55.9102 10.6777C56.4006 11.3426 56.2591 12.2791 55.5942 12.7694C54.9293 13.2598 53.9928 13.1183 53.5025 12.4534C52.1852 10.6672 50.5696 9.99169 48.4737 9.99169Z" fill="#262637"/>
<path fill-rule="evenodd" clip-rule="evenodd" d="M60.9944 7.16113C61.8205 7.16113 62.4902 7.83084 62.4902 8.65698V23.6985H67.6426C68.4687 23.6985 69.1384 24.3682 69.1384 25.1944C69.1384 26.0205 68.4687 26.6902 67.6426 26.6902H60.9944C60.1682 26.6902 59.4985 26.0205 59.4985 25.1944V8.65698C59.4985 7.83084 60.1682 7.16113 60.9944 7.16113Z" fill="#262637"/>
<path fill-rule="evenodd" clip-rule="evenodd" d="M90.2187 7.16113C91.0449 7.16113 91.7146 7.83084 91.7146 8.65698V23.6985H96.8669C97.6931 23.6985 98.3628 24.3682 98.3628 25.1944C98.3628 26.0205 97.6931 26.6902 96.8669 26.6902H90.2187C89.3926 26.6902 88.7229 26.0205 88.7229 25.1944V8.65698C88.7229 7.83084 89.3926 7.16113 90.2187 7.16113Z" fill="#262637"/>
<path fill-rule="evenodd" clip-rule="evenodd" d="M71.8254 8.82299C71.8254 7.99686 72.4952 7.32715 73.3213 7.32715H83.9307C84.7568 7.32715 85.4265 7.99686 85.4265 8.82299C85.4265 9.64912 84.7568 10.3188 83.9307 10.3188H73.3213C72.4952 10.3188 71.8254 9.64912 71.8254 8.82299Z" fill="#262637"/>
<path fill-rule="evenodd" clip-rule="evenodd" d="M71.8254 16.7458C71.8254 15.9197 72.4952 15.25 73.3213 15.25H80.7451C81.5712 15.25 82.2409 15.9197 82.2409 16.7458C82.2409 17.572 81.5712 18.2417 80.7451 18.2417H73.3213C72.4952 18.2417 71.8254 17.572 71.8254 16.7458Z" fill="#262637"/>
<path fill-rule="evenodd" clip-rule="evenodd" d="M71.8254 25.0559C71.8254 24.2298 72.4952 23.5601 73.3213 23.5601H83.9307C84.7568 23.5601 85.4265 24.2298 85.4265 25.0559C85.4265 25.882 84.7568 26.5517 83.9307 26.5517H73.3213C72.4952 26.5517 71.8254 25.882 71.8254 25.0559Z" fill="#262637"/>
<path fill-rule="evenodd" clip-rule="evenodd" d="M121.299 8.79565C121.299 7.96952 121.969 7.2998 122.795 7.2998H130.357C130.426 7.2998 130.494 7.30451 130.562 7.31389C131.371 7.42571 132.506 7.81676 133.471 8.65108C134.483 9.52648 135.273 10.8673 135.288 12.7172C135.303 14.5795 134.591 15.8864 133.689 16.7643C134.757 17.7242 135.648 19.1924 135.648 21.3164C135.648 23.3162 134.774 24.7056 133.593 25.5411C132.493 26.319 131.221 26.5571 130.352 26.5519H122.795C121.969 26.5519 121.299 25.8822 121.299 25.056V8.79565ZM124.291 10.2915V23.5602H130.357C130.359 23.5602 130.361 23.5602 130.363 23.5602C130.365 23.5602 130.366 23.5602 130.368 23.5602C130.764 23.5631 131.386 23.4376 131.865 23.0987C132.266 22.8155 132.656 22.3305 132.656 21.3164C132.656 19.2723 131.1 18.408 130.312 18.2343C129.617 18.0809 129.126 17.4584 129.139 16.7463C129.152 16.0341 129.665 15.4299 130.366 15.302C131.009 15.1845 132.311 14.5195 132.296 12.7411C132.289 11.8209 131.93 11.2735 131.514 10.9139C131.089 10.5461 130.572 10.3553 130.238 10.2915H124.291Z" fill="#262637"/>
<g clip-path="url(#clip0)">
<path d="M15.1303 3.40516C15.9374 2.93916 16.9318 2.93916 17.739 3.40516L27.5558 9.07294C28.363 9.53894 28.8602 10.4001 28.8602 11.3321V22.6677C28.8602 23.5997 28.363 24.4609 27.5558 24.9269L17.739 30.5947C16.9318 31.0607 15.9374 31.0607 15.1303 30.5947L5.31338 24.9269C4.50625 24.4609 4.00903 23.5997 4.00903 22.6677V11.3321C4.00903 10.4001 4.50625 9.53894 5.31338 9.07294L15.1303 3.40516Z" fill="#10215C"/>
<path d="M16.4347 17.0002L8.08691 12.1741L15.5643 7.85118C16.1028 7.53984 16.7667 7.53984 17.3052 7.85118L24.7826 12.1741L16.4347 17.0002Z" fill="url(#paint0_linear)"/>
<path d="M23.9139 22.3282L16.4348 26.6521V16.9999L24.7826 12.1738V20.8226C24.7826 21.4436 24.4515 22.0174 23.9139 22.3282Z" fill="url(#paint1_radial)"/>
<path d="M16.4347 26.6521L8.9556 22.3282C8.41801 22.0174 8.08691 21.4436 8.08691 20.8226V12.1738L16.4347 16.9999V26.6521Z" fill="url(#paint2_radial)"/>
</g>
<defs>
<linearGradient id="paint0_linear" x1="16.4347" y1="7.34797" x2="16.4347" y2="17.0002" gradientUnits="userSpaceOnUse">
<stop stop-color="#5E4CF7"/>
<stop offset="1" stop-color="#8E9FF5"/>
</linearGradient>
<radialGradient id="paint1_radial" cx="0" cy="0" r="1" gradientUnits="userSpaceOnUse" gradientTransform="translate(16.4348 16.913) rotate(30.6997) scale(9.70843)">
<stop stop-color="#C566FF"/>
<stop offset="1" stop-color="#9330F5"/>
</radialGradient>
<radialGradient id="paint2_radial" cx="0" cy="0" r="1" gradientUnits="userSpaceOnUse" gradientTransform="translate(16.4347 16.913) rotate(151.557) scale(9.49383)">
<stop stop-color="#5CF7FF"/>
<stop offset="1" stop-color="#3DD1FF"/>
</radialGradient>
<clipPath id="clip0">
<rect width="24.8696" height="28" fill="white" transform="translate(4 3)"/>
</clipPath>
</defs>
</svg>
