<svg width="48" height="48" viewBox="0 0 48 48" fill="none" xmlns="http://www.w3.org/2000/svg">
<path d="M0 18L23.112 32.709C23.376 32.904 23.688 33 24 33C24.312 33 24.624 32.904 24.888 32.709L48 18L24.9 4.66665C24.366 4.26765 23.634 4.26765 23.1 4.66665L0 18Z" fill="#64D3F6"/>
<path d="M39.6667 4H9.66675C8.01375 4 6.66675 5.19733 6.66675 6.66667V36C6.66675 36.736 7.33875 37.3333 8.16675 37.3333H41.1667C41.9947 37.3333 42.6667 36.736 42.6667 36V6.66667C42.6667 5.19733 41.3227 4 39.6667 4Z" fill="#ECEFF1"/>
<path d="M13.5 13.3333H34.5C35.328 13.3333 36 12.736 36 12C36 11.264 35.328 10.6667 34.5 10.6667H13.5C12.672 10.6667 12 11.264 12 12C12 12.736 12.672 13.3333 13.5 13.3333Z" fill="#90A4AE"/>
<path d="M26.4 16H13.6C12.7168 16 12 16.5973 12 17.3333C12 18.0693 12.7168 18.6667 13.6 18.6667H26.4C27.2832 18.6667 28 18.0693 28 17.3333C28 16.5973 27.2832 16 26.4 16Z" fill="#90A4AE"/>
<path d="M24.888 32.709C24.624 32.904 24.312 33 24 33C23.688 33 23.376 32.904 23.112 32.709L0 18V45C0 46.656 1.344 48 3 48H45C46.656 48 48 46.656 48 45V18L24.888 32.709Z" fill="#1EA9E5"/>
<path d="M45 48H3C1.317 48 0 46.3791 0 44.3077C0 43.7206 0.228 43.1668 0.612 42.8197L23.112 24.3582C23.376 24.1182 23.688 24 24 24C24.312 24 24.624 24.1182 24.888 24.3582L47.388 42.8197C47.772 43.1668 48 43.7206 48 44.3077C48 46.3791 46.683 48 45 48Z" fill="#01C4EE"/>
</svg>
