<svg width="24" height="24" viewBox="0 0 24 24" fill="none" xmlns="http://www.w3.org/2000/svg">
<path d="M17.8229 11.6178L13.9544 8.1583C13.7183 7.94723 13.3355 7.94723 13.0995 8.1583C12.8634 8.36942 12.8634 8.71164 13.0995 8.92276L15.9362 11.4595H6.60447C6.27066 11.4595 6 11.7015 6 12C6 12.2985 6.27066 12.5405 6.60447 12.5405H15.9362L13.0996 15.0772C12.8635 15.2883 12.8635 15.6306 13.0996 15.8417C13.2176 15.9472 13.3723 16 13.527 16C13.6817 16 13.8364 15.9472 13.9545 15.8417L17.8229 12.3822C18.059 12.1711 18.059 11.8289 17.8229 11.6178Z" fill="white"/>
</svg>
