<svg width="156" height="34" viewBox="0 0 156 34" fill="none" xmlns="http://www.w3.org/2000/svg">
<path fill-rule="evenodd" clip-rule="evenodd" d="M107.385 8.25111C107.609 7.67727 108.162 7.29956 108.778 7.29956H110.219C110.835 7.29956 111.388 7.67727 111.612 8.25111L118.094 24.8439C118.395 25.6134 118.015 26.4809 117.245 26.7815C116.476 27.0821 115.608 26.702 115.307 25.9325L109.499 11.0627L103.69 25.9325C103.389 26.702 102.522 27.0821 101.752 26.7815C100.983 26.4809 100.602 25.6134 100.903 24.8439L107.385 8.25111Z" fill="#262637"/>
<path fill-rule="evenodd" clip-rule="evenodd" d="M48.4737 9.99169C45.1879 9.99169 41.9917 13.1332 41.9917 17C41.9917 20.8736 45.1389 24.0083 48.4737 24.0083C49.57 24.0083 50.3877 23.8454 51.1256 23.4915C51.8762 23.1316 52.6527 22.522 53.5831 21.4641C54.1287 20.8437 55.0739 20.7832 55.6943 21.3288C56.3146 21.8743 56.3752 22.8195 55.8296 23.4399C54.7379 24.6811 53.6524 25.5976 52.4193 26.189C51.1736 26.7864 49.8861 27 48.4737 27C43.332 27 39 22.3668 39 17C39 11.6264 43.3938 7 48.4737 7C51.3952 7 53.9589 8.0318 55.9102 10.6777C56.4006 11.3426 56.2591 12.2791 55.5942 12.7694C54.9293 13.2598 53.9928 13.1183 53.5025 12.4534C52.1852 10.6672 50.5696 9.99169 48.4737 9.99169Z" fill="#262637"/>
<path fill-rule="evenodd" clip-rule="evenodd" d="M60.9945 7.16113C61.8206 7.16113 62.4903 7.83084 62.4903 8.65698V23.6985H67.6426C68.4688 23.6985 69.1385 24.3682 69.1385 25.1944C69.1385 26.0205 68.4688 26.6902 67.6426 26.6902H60.9945C60.1683 26.6902 59.4986 26.0205 59.4986 25.1944V8.65698C59.4986 7.83084 60.1683 7.16113 60.9945 7.16113Z" fill="#262637"/>
<path fill-rule="evenodd" clip-rule="evenodd" d="M90.2188 7.16113C91.0449 7.16113 91.7146 7.83084 91.7146 8.65698V23.6985H96.867C97.6931 23.6985 98.3628 24.3682 98.3628 25.1944C98.3628 26.0205 97.6931 26.6902 96.867 26.6902H90.2188C89.3927 26.6902 88.723 26.0205 88.723 25.1944V8.65698C88.723 7.83084 89.3927 7.16113 90.2188 7.16113Z" fill="#262637"/>
<path fill-rule="evenodd" clip-rule="evenodd" d="M71.8255 8.82324C71.8255 7.9971 72.4952 7.32739 73.3213 7.32739H83.9307C84.7568 7.32739 85.4266 7.9971 85.4266 8.82324C85.4266 9.64937 84.7568 10.3191 83.9307 10.3191H73.3213C72.4952 10.3191 71.8255 9.64937 71.8255 8.82324Z" fill="#262637"/>
<path fill-rule="evenodd" clip-rule="evenodd" d="M71.8255 16.7456C71.8255 15.9195 72.4952 15.2498 73.3213 15.2498H80.7451C81.5712 15.2498 82.241 15.9195 82.241 16.7456C82.241 17.5717 81.5712 18.2414 80.7451 18.2414H73.3213C72.4952 18.2414 71.8255 17.5717 71.8255 16.7456Z" fill="#262637"/>
<path fill-rule="evenodd" clip-rule="evenodd" d="M71.8255 25.0559C71.8255 24.2298 72.4952 23.5601 73.3213 23.5601H83.9307C84.7568 23.5601 85.4266 24.2298 85.4266 25.0559C85.4266 25.882 84.7568 26.5517 83.9307 26.5517H73.3213C72.4952 26.5517 71.8255 25.882 71.8255 25.0559Z" fill="#262637"/>
<path fill-rule="evenodd" clip-rule="evenodd" d="M121.299 8.7954C121.299 7.96927 121.969 7.29956 122.795 7.29956H130.357C130.426 7.29956 130.494 7.30427 130.562 7.31365C131.371 7.42547 132.506 7.81651 133.471 8.65084C134.483 9.52624 135.273 10.8671 135.288 12.717C135.303 14.5793 134.591 15.8862 133.689 16.764C134.757 17.724 135.648 19.1922 135.648 21.3162C135.648 23.3159 134.774 24.7054 133.593 25.5408C132.493 26.3188 131.222 26.5568 130.352 26.5516H122.795C121.969 26.5516 121.299 25.8819 121.299 25.0558V8.7954ZM124.291 10.2912V23.5599H130.357C130.359 23.5599 130.361 23.5599 130.363 23.56C130.365 23.56 130.367 23.56 130.368 23.56C130.764 23.5629 131.386 23.4373 131.865 23.0985C132.266 22.8153 132.656 22.3303 132.656 21.3162C132.656 19.272 131.1 18.4078 130.312 18.234C129.617 18.0807 129.126 17.4582 129.139 16.746C129.152 16.0339 129.665 15.4296 130.366 15.3017C131.009 15.1843 132.311 14.5193 132.296 12.7409C132.289 11.8207 131.93 11.2732 131.514 10.9137C131.089 10.5459 130.572 10.355 130.238 10.2912H124.291Z" fill="#262637"/>
<g clip-path="url(#clip0_1149_2415)">
<path d="M15.1303 3.40516C15.9375 2.93916 16.9319 2.93916 17.739 3.40516L27.5559 9.07294C28.363 9.53894 28.8602 10.4001 28.8602 11.3321V22.6677C28.8602 23.5997 28.363 24.4609 27.5559 24.9269L17.739 30.5947C16.9319 31.0607 15.9375 31.0607 15.1303 30.5947L5.31344 24.9269C4.50631 24.4609 4.00909 23.5997 4.00909 22.6677V11.3321C4.00909 10.4001 4.50631 9.53894 5.31344 9.07294L15.1303 3.40516Z" fill="#10215C"/>
<path d="M16.4348 16.9999L8.08694 12.1738L15.5643 7.85094C16.1029 7.5396 16.7667 7.5396 17.3052 7.85094L24.7826 12.1738L16.4348 16.9999Z" fill="url(#paint0_linear_1149_2415)"/>
<path d="M23.9139 22.3282L16.4348 26.6521V16.9999L24.7826 12.1738V20.8226C24.7826 21.4436 24.4515 22.0174 23.9139 22.3282Z" fill="url(#paint1_radial_1149_2415)"/>
<path d="M16.4348 26.6521L8.95563 22.3282C8.41804 22.0174 8.08694 21.4436 8.08694 20.8226V12.1738L16.4348 16.9999V26.6521Z" fill="url(#paint2_radial_1149_2415)"/>
</g>
<defs>
<linearGradient id="paint0_linear_1149_2415" x1="16.4348" y1="7.34773" x2="16.4348" y2="16.9999" gradientUnits="userSpaceOnUse">
<stop stop-color="#5E4CF7"/>
<stop offset="1" stop-color="#8E9FF5"/>
</linearGradient>
<radialGradient id="paint1_radial_1149_2415" cx="0" cy="0" r="1" gradientUnits="userSpaceOnUse" gradientTransform="translate(16.4348 16.913) rotate(30.6997) scale(9.70843)">
<stop stop-color="#C566FF"/>
<stop offset="1" stop-color="#9330F5"/>
</radialGradient>
<radialGradient id="paint2_radial_1149_2415" cx="0" cy="0" r="1" gradientUnits="userSpaceOnUse" gradientTransform="translate(16.4348 16.913) rotate(151.557) scale(9.49383)">
<stop stop-color="#5CF7FF"/>
<stop offset="1" stop-color="#3DD1FF"/>
</radialGradient>
<clipPath id="clip0_1149_2415">
<rect width="24.8696" height="28" fill="white" transform="translate(4 3)"/>
</clipPath>
</defs>
</svg>
