<svg width="100" height="26" viewBox="0 0 100 26" fill="none" xmlns="http://www.w3.org/2000/svg">
<path d="M34.4776 6.45773H37.7104V2.62029L42.093 0V6.45773H46.6756V10.4473H42.093V17.7334C42.093 19.593 42.8762 20.2523 43.9927 20.2523C44.6092 20.2523 45.0925 20.0494 45.6091 19.593L47.6421 23.1261C46.5089 23.9714 45.0925 24.4616 43.4761 24.4616C39.8267 24.4616 37.6937 22.6866 37.6937 17.8687V10.4304H34.4609V6.45773H34.4776ZM62.223 15.2315C62.223 12.4759 60.09 10.2783 57.4404 10.2783C54.7575 10.2783 52.6579 12.4759 52.6579 15.2315C52.6579 17.987 54.7575 20.1847 57.4404 20.1847C60.1066 20.1847 62.223 17.987 62.223 15.2315ZM48.2253 15.2653C48.2253 10.1599 52.1913 6.05201 57.4238 6.05201C62.6229 6.05201 66.6556 10.143 66.6556 15.2653C66.6556 20.3537 62.6895 24.4785 57.4238 24.4785C52.1913 24.4785 48.2253 20.3537 48.2253 15.2653ZM67.5721 20.0832L71.8714 18.3758C72.6546 19.948 74.0377 20.7594 75.8707 20.7594C77.6704 20.7594 78.6536 19.8804 78.6536 18.8322C78.6536 17.5475 76.7872 17.2601 74.5542 16.8036C71.6214 16.1782 68.3553 15.2653 68.3553 11.5293C68.3553 8.55396 71.1881 5.95058 75.4874 5.98439C79.1701 5.98439 81.3698 7.38751 82.9695 9.75422L78.9035 11.4278C78.187 10.2445 77.0872 9.55137 75.4874 9.55137C73.7377 9.55137 72.9045 10.2783 72.9045 11.2588C72.9045 12.3745 74.3209 12.6619 76.8705 13.2198C79.77 13.8114 83.2028 14.8257 83.2028 18.6294C83.2028 21.3849 80.7865 24.4954 75.7207 24.4616C71.5714 24.4785 68.9552 22.9064 67.5721 20.0832ZM84.3526 20.0832L88.6519 18.3758C89.4351 19.948 90.8182 20.7594 92.6512 20.7594C94.4676 20.7594 95.4341 19.8804 95.4341 18.8322C95.4341 17.5475 93.5677 17.2601 91.3348 16.8036C88.4019 16.1782 85.1358 15.2653 85.1358 11.5293C85.1358 8.55396 87.9853 5.95058 92.268 5.98439C95.9507 5.98439 98.1503 7.38751 99.7667 9.75422L95.7007 11.4278C94.9842 10.2445 93.901 9.55137 92.2846 9.55137C90.5349 9.55137 89.7017 10.2783 89.7017 11.2588C89.7017 12.3745 91.1181 12.6619 93.6677 13.2198C96.5672 13.8114 100 14.8257 100 18.6294C100 21.3849 97.5837 24.4954 92.5012 24.4616C88.3519 24.4785 85.7357 22.9064 84.3526 20.0832ZM28.7285 13.7438C28.7285 16.9896 27.4621 20.117 25.1958 22.4161C22.9295 24.7152 19.8634 26 16.6639 26C11.8147 26 7.63206 23.1092 5.71571 18.9168C3.68272 19.4915 1.74971 20.4213 0 21.6385C0.5999 18.2237 1.84969 14.1664 3.86602 10.4642C6.36561 5.88296 10.1316 1.94408 15.8474 1.55527C16.5639 1.50455 17.2638 1.52146 17.9803 1.58908C24.0127 2.19766 28.7285 7.42132 28.7285 13.7438Z" fill="#0050FF"/>
</svg>
